<?xml version="1.0" standalone="no"?><!DOCTYPE svg PUBLIC "-//W3C//DTD SVG 1.1//EN" "http://www.w3.org/Graphics/SVG/1.1/DTD/svg11.dtd"><svg class="icon" width="240px" height="240.00px" viewBox="0 0 1024 1024" version="1.1" xmlns="http://www.w3.org/2000/svg"><path d="M942.427421 234.839536a17.254917 17.254917 0 1 0-28.988261 18.715833 475.626037 475.626037 0 0 1 76.013661 258.559181c0 263.229511-214.145024 477.386038-477.386038 477.386038s-477.386038-214.156527-477.386038-477.386038 214.145024-477.386038 477.386038-477.386039a475.683553 475.683553 0 0 1 166.659492 29.908523 17.254917 17.254917 0 0 0 12.055436-32.335714 511.964892 511.964892 0 1 0 251.64571 202.538216z" fill="#2c2c2c" /><path d="M796.059711 128.365195a482.807533 482.807533 0 0 1 34.969965 28.562639 17.254917 17.254917 0 1 0 23.064073-25.663813c-11.963409-10.755565-24.571002-21.050999-37.47768-30.621726a17.256067 17.256067 0 1 0-20.556358 27.7229zM806.447171 290.032264a13.286286 13.286286 0 0 0-11.917396 7.431118L596.799929 700.227655c-17.254917 35.188527-67.443719 35.188527-84.710139 0L315.22269 299.085344a16.173609 16.173609 0 0 0-14.517137-9.041577h-91.796159a12.584586 12.584586 0 0 0-11.273212 18.117663l271.937492 554.089896c16.944329 34.509834 66.143849 34.509834 83.088177 0l274.042593-558.277089a9.674257 9.674257 0 0 0-8.684975-13.941973z" fill="#2c2c2c" /></svg>